<svg width="24" height="24" viewBox="0 0 24 24" fill="none" xmlns="http://www.w3.org/2000/svg">
<path d="M2 10H0V15H2V10Z" fill="#0F4960"/>
<path d="M24 10H22V15H24V10Z" fill="#0F4960"/>
<path d="M18 1H6C5.447 1 5 1.448 5 2C5 2.552 5.447 3 6 3H7.382L9.106 6.447L10.895 5.552L9.618 3H14.382L13.106 5.553L14.895 6.448L16.618 3H18C18.553 3 19 2.552 19 2C19 1.448 18.553 1 18 1Z" fill="#0F4960"/>
<path d="M18 5H6C4.346 5 3 6.346 3 8V22C3 22.552 3.447 23 4 23H20C20.553 23 21 22.552 21 22V8C21 6.346 19.654 5 18 5ZM7 20C6.448 20 6 19.552 6 19C6 18.448 6.448 18 7 18C7.552 18 8 18.448 8 19C8 19.552 7.552 20 7 20ZM17 20C16.448 20 16 19.552 16 19C16 18.448 16.448 18 17 18C17.552 18 18 18.448 18 19C18 19.552 17.552 20 17 20ZM19 14C19 14.552 18.552 15 18 15H6C5.448 15 5 14.552 5 14V8C5 7.448 5.448 7 6 7H18C18.552 7 19 7.448 19 8V14Z" fill="#0F4960"/>
</svg>
