<svg width="16" height="16" viewBox="0 0 16 16" fill="none" xmlns="http://www.w3.org/2000/svg">
<path fill-rule="evenodd" clip-rule="evenodd" d="M8.61603 0H7.16149V3.63636H8.61603V0ZM4.97967 0.727273H3.52512V4.36364H4.97967V0.727273ZM10.7979 0.727273H12.2524V4.36364H10.7979V0.727273ZM15.7775 10.1818L15.4524 8.24873C15.3392 7.56996 14.989 6.9533 14.4641 6.50831C13.9392 6.06331 13.2736 5.81879 12.5855 5.81818H3.192C2.50386 5.81879 1.83822 6.06331 1.31333 6.50831C0.788438 6.9533 0.438289 7.56996 0.325091 8.24873L0 10.1818H15.7775ZM9.99782 12.6887L10.52 11.6364H15.7775L15.4524 13.5695C15.3392 14.2482 14.989 14.8649 14.4641 15.3099C13.9392 15.7549 13.2736 15.9994 12.5855 16H3.192C2.50386 15.9994 1.83822 15.7549 1.31333 15.3099C0.788438 14.8649 0.438289 14.2482 0.325091 13.5695L0 11.6364H5.25745L5.78327 12.6887C5.84368 12.8096 5.93659 12.9113 6.05156 12.9823C6.16654 13.0534 6.29903 13.091 6.43418 13.0909H9.34327C9.47904 13.0917 9.6123 13.0544 9.72798 12.9833C9.84366 12.9122 9.93713 12.8102 9.99782 12.6887Z" fill="white"/>
</svg>
