<svg width="16" height="16" viewBox="0 0 16 16" fill="none" xmlns="http://www.w3.org/2000/svg">
<g clip-path="url(#clip0)">
<path d="M13 1.6H12.2V0.8C12.2 0.587827 12.1157 0.384344 11.9657 0.234315C11.8157 0.0842854 11.6122 0 11.4 0C11.1878 0 10.9843 0.0842854 10.8343 0.234315C10.6843 0.384344 10.6 0.587827 10.6 0.8V1.6H5.8V0.8C5.8 0.587827 5.71571 0.384344 5.56568 0.234315C5.41566 0.0842854 5.21217 0 5 0C4.78783 0 4.58434 0.0842854 4.43431 0.234315C4.28429 0.384344 4.2 0.587827 4.2 0.8V1.6H3.4C2.76348 1.6 2.15303 1.85286 1.70294 2.30294C1.25286 2.75303 1 3.36348 1 4V13.6C1 14.2365 1.25286 14.847 1.70294 15.2971C2.15303 15.7471 2.76348 16 3.4 16H13C13.6365 16 14.247 15.7471 14.6971 15.2971C15.1471 14.847 15.4 14.2365 15.4 13.6V4C15.4 3.36348 15.1471 2.75303 14.6971 2.30294C14.247 1.85286 13.6365 1.6 13 1.6ZM5 12C4.84177 12 4.6871 11.9531 4.55554 11.8652C4.42398 11.7773 4.32145 11.6523 4.2609 11.5061C4.20035 11.36 4.1845 11.1991 4.21537 11.0439C4.24624 10.8887 4.32243 10.7462 4.43431 10.6343C4.5462 10.5224 4.68874 10.4462 4.84393 10.4154C4.99911 10.3845 5.15997 10.4003 5.30615 10.4609C5.45233 10.5214 5.57727 10.624 5.66518 10.7555C5.75308 10.8871 5.8 11.0418 5.8 11.2C5.8 11.4122 5.71571 11.6157 5.56568 11.7657C5.41566 11.9157 5.21217 12 5 12ZM11.4 12H8.2C7.98783 12 7.78434 11.9157 7.63431 11.7657C7.48429 11.6157 7.4 11.4122 7.4 11.2C7.4 10.9878 7.48429 10.7843 7.63431 10.6343C7.78434 10.4843 7.98783 10.4 8.2 10.4H11.4C11.6122 10.4 11.8157 10.4843 11.9657 10.6343C12.1157 10.7843 12.2 10.9878 12.2 11.2C12.2 11.4122 12.1157 11.6157 11.9657 11.7657C11.8157 11.9157 11.6122 12 11.4 12ZM13.8 7.2H2.6V4C2.6 3.78783 2.68429 3.58434 2.83431 3.43431C2.98434 3.28429 3.18783 3.2 3.4 3.2H4.2V4C4.2 4.21217 4.28429 4.41566 4.43431 4.56569C4.58434 4.71571 4.78783 4.8 5 4.8C5.21217 4.8 5.41566 4.71571 5.56568 4.56569C5.71571 4.41566 5.8 4.21217 5.8 4V3.2H10.6V4C10.6 4.21217 10.6843 4.41566 10.8343 4.56569C10.9843 4.71571 11.1878 4.8 11.4 4.8C11.6122 4.8 11.8157 4.71571 11.9657 4.56569C12.1157 4.41566 12.2 4.21217 12.2 4V3.2H13C13.2122 3.2 13.4157 3.28429 13.5657 3.43431C13.7157 3.58434 13.8 3.78783 13.8 4V7.2Z" fill="#0F4960"/>
</g>
<defs>
<clipPath id="clip0">
<rect width="16" height="16" fill="white"/>
</clipPath>
</defs>
</svg>
