<svg width="24" height="24" viewBox="0 0 24 24" fill="none" xmlns="http://www.w3.org/2000/svg">
<g clip-path="url(#clip0)">
<path d="M11 6C10.4067 6 9.82664 5.82405 9.33329 5.49441C8.83994 5.16477 8.45542 4.69623 8.22836 4.14805C8.0013 3.59987 7.94189 2.99667 8.05764 2.41473C8.1734 1.83279 8.45912 1.29824 8.87868 0.878681C9.29824 0.459123 9.83279 0.173401 10.4147 0.0576455C10.9967 -0.0581102 11.5999 0.00129986 12.148 0.228363C12.6962 0.455426 13.1648 0.839943 13.4944 1.33329C13.8241 1.82664 14 2.40666 14 3C14 3.79565 13.6839 4.55871 13.1213 5.12132C12.5587 5.68393 11.7956 6 11 6Z" fill="#0F4960"/>
<path d="M20 24C21.1046 24 22 23.1046 22 22C22 20.8954 21.1046 20 20 20C18.8954 20 18 20.8954 18 22C18 23.1046 18.8954 24 20 24Z" fill="#0F4960"/>
<path d="M10 22C9.11804 22.0049 8.25947 21.7166 7.55918 21.1804C6.8589 20.6442 6.35659 19.8906 6.1312 19.0379C5.90581 18.1852 5.97011 17.2818 6.31399 16.4697C6.65787 15.6575 7.26184 14.9826 8.031 14.551L7.621 12.5L7.312 12.656C6.35948 13.1359 5.55231 13.8613 4.97384 14.7574C4.39537 15.6535 4.06657 16.6877 4.02138 17.7534C3.9762 18.819 4.21626 19.8774 4.7168 20.8192C5.21733 21.761 5.96018 22.5522 6.86866 23.111C7.77714 23.6698 8.8183 23.976 9.88466 23.998C10.951 24.0199 12.0039 23.7568 12.9346 23.2359C13.8653 22.715 14.6401 21.955 15.179 21.0346C15.7179 20.1142 16.0013 19.0666 16 18H14C14 19.0609 13.5786 20.0783 12.8284 20.8284C12.0783 21.5786 11.0609 22 10 22Z" fill="#0F4960"/>
<path d="M19 13.9998H14.039L12.961 8.60681C12.8568 8.08693 12.5503 7.62972 12.1091 7.33569C11.6679 7.04166 11.1279 6.93487 10.608 7.03881L4.833 8.01381C4.68701 8.03915 4.54848 8.09661 4.42741 8.18204C4.30635 8.26748 4.20579 8.37875 4.133 8.50781L1.637 12.9148L3.378 13.8988L5.636 9.90581L9.036 9.33281C9.036 9.35281 9.036 9.37181 9.042 9.39281L10.042 14.3928C10.1327 14.8455 10.3773 15.2529 10.7342 15.5458C11.0911 15.8387 11.5383 15.9991 12 15.9998H19V17.9998H21V15.9998C21 15.4694 20.7893 14.9607 20.4142 14.5856C20.0391 14.2105 19.5304 13.9998 19 13.9998Z" fill="#0F4960"/>
</g>
<defs>
<clipPath id="clip0">
<rect width="24" height="24" fill="white"/>
</clipPath>
</defs>
</svg>
