<?xml version="1.0" encoding="UTF-8"?>
<svg width="345px" height="294px" viewBox="0 0 345 294" version="1.1" xmlns="http://www.w3.org/2000/svg" xmlns:xlink="http://www.w3.org/1999/xlink">
    <!-- Generator: Sketch 62 (91390) - https://sketch.com -->
    <title>Group 5</title>
    <desc>Created with Sketch.</desc>
    <g id="Landing-page" stroke="none" stroke-width="1" fill="none" fill-rule="evenodd">
        <g id="Bondens-Landing" transform="translate(-1287.000000, -243.000000)" fill="#F0EBE3">
            <g id="Group-5" transform="translate(1287.000000, 243.000000)">
                <path d="M144.437912,105.087413 C129.54446,95.6392526 118.332215,80.9644506 113.245097,64.0152292 C111.039876,56.6581627 111.924592,48.5953248 115.678066,41.8937737 L116.937254,39.6431712 L126.086621,70.1333717 C127.280112,74.1079794 131.475944,76.3649185 135.461547,75.1764693 C139.444959,73.9856165 141.707117,69.7990589 140.513626,65.8222663 L131.364259,35.3342508 L133.657076,36.5229185 C140.485158,40.0648861 145.666441,46.3163167 147.873852,53.6711981 C152.96097,70.6250082 151.675504,89.0316586 144.437912,105.087413 M140.605602,23.1897378 L125.346437,15.2732984 L122.370375,5.35972234 C121.179074,1.38511472 116.981052,-0.87422793 112.997639,0.318809871 C109.014226,1.50747757 106.749878,5.69403513 107.943369,9.6708278 L110.917242,19.5822188 L102.529957,34.5651129 C96.8033907,44.7955213 95.4500377,57.1017281 98.818091,68.3241496 C105.670262,91.1598982 121.757205,110.56315 142.950976,121.562697 L144.07877,122.150475 C147.689901,124.025249 152.141951,122.696738 154.128182,119.152586 L154.752301,118.03821 C166.400335,97.2277846 169.153028,72.1960598 162.300858,49.3622777 C158.932804,38.1376712 151.025106,28.5977388 140.605602,23.1897378" id="Fill-1"></path>
                <path d="M229.873737,69.3275375 C227.666312,76.6818378 222.484996,82.9333318 215.657309,86.4753352 L213.364478,87.6640149 L222.513465,57.1741612 C223.706963,53.2016984 221.444791,49.0150984 217.461791,47.8242336 C213.476163,46.6333688 209.280304,48.8905492 208.086805,52.8651971 L198.93738,83.3550509 L197.678185,81.1066107 C193.924687,74.4034621 193.039965,66.3383575 195.2452,58.9834016 C200.33235,42.03379 211.544666,27.3588394 226.437775,17.9105836 C233.673223,33.9665003 234.960887,52.3757408 229.873737,69.3275375 M236.75223,4.95965563 L236.128107,3.84745345 C234.141863,0.303264965 229.691975,-1.02525945 226.078631,0.849533227 L224.950829,1.4351328 C203.757362,12.4326055 187.670317,31.8382392 180.818102,54.6744376 C177.450028,65.8991578 178.803389,78.2026487 184.529992,88.4353457 L192.91733,103.416207 L189.943439,113.327698 C188.75213,117.304531 191.012112,121.493316 194.99774,122.681996 C198.983368,123.87286 203.179227,121.61568 204.370536,117.638847 L207.344427,107.727356 L222.605441,99.8086509 C233.025011,94.4005952 240.93276,84.8605662 244.300834,73.6386866 C251.153048,50.8024882 248.400337,25.7702913 236.75223,4.95965563" id="Fill-2"></path>
                <path d="M225.02506,173.7297 C222.520837,180.67078 219.222006,186.463383 215.121561,191.111876 C211.021553,195.762552 206.774883,198.066056 202.37936,198.024571 C200.288859,198.007104 198.496064,197.251642 196.998784,195.762552 C195.505882,194.273462 194.555854,192.28437 194.159644,189.797459 C193.233694,183.998306 194.356654,178.284306 197.528523,172.664192 C200.698203,167.041896 205.183476,162.443621 210.979962,158.869369 C216.776449,155.301667 222.952071,153.268907 229.503765,152.779821 C229.019995,159.808238 227.529282,166.790803 225.02506,173.7297 M343.951541,153.568035 C343.202901,148.864956 341.650896,145.118214 339.293337,142.329992 C336.935778,139.541769 334.442501,138.091981 331.820072,137.987177 C329.677036,137.902024 327.903942,138.644385 326.502978,140.216445 C325.102014,141.790688 324.537251,143.436984 324.813066,145.161882 C324.924705,145.875859 325.250867,146.923899 325.791551,148.303818 C326.330047,149.683737 326.730635,151.209945 326.995504,152.873708 C328.67885,163.463277 328.035282,175.336694 325.064801,188.49396 C322.09651,201.655592 317.420794,214.291022 311.035465,226.424266 C303.27544,241.286779 295.30746,252.867619 287.135903,261.168967 C278.962156,269.472499 271.33785,273.54457 264.265173,273.374264 C260.408145,273.280377 257.061156,272.053297 254.226393,269.686474 C251.391631,267.317467 249.644805,264.061994 248.983725,259.909136 C248.132202,254.570683 248.375182,248.795548 249.708286,242.585912 C251.043579,236.376276 252.8911,230.367515 255.250848,224.568362 C257.612785,218.764842 259.963777,212.919836 262.310391,207.033346 C264.657005,201.146856 266.473879,194.954688 267.761015,188.454658 C269.04815,181.952445 269.232026,175.821412 268.317022,170.065927 C267.277244,163.535329 264.687651,157.823513 260.546052,152.939211 C256.402265,148.054909 251.192432,144.511224 244.912175,142.319074 C244.883718,142.140034 244.855261,141.963178 244.826804,141.786321 C243.900854,135.974067 242.090547,131.401994 239.395881,128.0701 C236.701215,124.740391 233.824862,123.050427 230.771199,123.001151 C228.895221,122.96964 227.373862,123.585364 226.211501,124.836461 C225.04695,126.089742 224.602581,127.576648 224.876207,129.29718 C224.990035,130.006791 225.48694,130.960943 226.375676,132.155272 C227.299436,133.587593 228.144392,136.203326 228.908355,140.000286 C222.159651,140.249196 215.484936,141.832173 208.885084,144.747033 C202.28961,147.65971 196.604763,151.369334 191.832731,155.858438 C187.060699,160.351909 183.394115,165.550623 180.8286,171.45458 C178.263086,177.35417 177.442209,183.205726 178.368158,189.004879 C179.53052,196.280022 182.376227,201.919786 186.898712,205.937272 C191.421198,209.952574 197.167337,211.987518 204.137131,212.055204 C209.014235,212.101055 213.851938,210.485327 218.652427,207.20802 C223.451165,203.930712 227.649677,199.664317 231.248402,194.4001 C234.844938,189.138067 237.881089,183.205726 240.356854,176.598708 C242.830431,169.993874 244.399948,163.415242 245.067594,156.867176 C248.602838,159.95016 250.796222,164.166337 251.647745,169.504789 C252.479567,174.723154 252.212508,180.424054 250.846569,186.603121 C249.480629,192.784373 247.591518,198.775666 245.177044,204.58137 C242.762571,210.387074 240.350287,216.210245 237.940192,222.050883 C235.532286,227.891521 233.669442,234.053122 232.349472,240.535684 C231.029502,247.018247 230.819357,253.075043 231.719038,258.706074 C233.098112,267.361135 236.738428,274.352434 242.637798,279.695253 C248.539357,285.038073 255.482883,287.797911 263.468375,287.987868 C274.936575,288.260795 285.945084,283.928897 296.489523,274.981258 C307.038341,266.031435 316.759714,253.046659 325.6624,236.009463 C332.877362,222.098918 338.214158,207.954748 341.677164,193.557302 C345.135793,179.162039 345.895378,165.832283 343.951541,153.568035" id="Fill-3"></path>
                <path d="M121.561963,279.991848 C115.914851,280.715816 110.609193,279.84093 105.638421,277.35844 C100.66765,274.878137 97.5310949,271.30204 96.2287571,266.621398 C96.0383313,266.111777 96.1061842,265.689644 96.430127,265.350626 C96.7562587,265.00942 97.2115297,264.978799 97.8025065,265.254388 C108.468544,270.989268 121.021329,273.788904 135.469617,273.699228 C131.25836,277.246892 126.624664,279.342245 121.561963,279.991848 M116.409521,222.465887 C111.830545,223.060809 109.337498,222.115932 108.93257,219.622506 C108.461977,216.724445 111.292099,214.867499 117.41637,214.07354 C123.010951,213.349572 127.922625,213.819823 132.162336,215.47992 C127.038348,219.43878 121.789599,221.768165 116.409521,222.465887 M46.499153,181.842729 C43.9907847,189.200523 40.7010138,195.534699 36.6364066,200.847446 C32.5674218,206.164568 28.4130738,209.143556 24.1602295,209.790972 C22.0874331,210.108118 20.310125,209.640054 18.8283054,208.386779 C17.3464858,207.133504 16.4074893,205.294056 16.0135047,202.868434 C15.0920187,197.203545 16.1951754,191.304624 19.3120309,185.169484 C22.4266975,179.034344 26.8590236,173.708474 32.6090091,169.202809 C38.3568058,164.697145 44.5073422,161.667851 51.0606184,160.121489 C50.5287393,167.247438 49.0075212,174.487122 46.499153,181.842729 M193.547316,235.860396 C190.511446,233.675367 186.230148,234.836779 184.722062,238.259772 L184.14203,239.576475 C179.983304,248.117553 172.705534,253.898364 162.269321,256.93422 C164.407782,249.338019 164.856486,241.704636 163.617624,234.031884 C162.348118,226.186341 158.905131,219.515333 153.288663,214.031983 C159.903225,206.542956 164.7952,197.984381 167.962398,188.347509 C171.129596,178.706262 171.972285,169.296859 170.486088,160.110553 C169.01959,151.042357 165.539393,144.310107 160.049875,139.929114 C154.558168,135.548121 147.44237,133.888024 138.702479,134.972883 C122.290834,137.011368 105.903266,153.032723 89.5463416,183.036949 C89.5879288,178.590339 89.3449717,174.743027 88.819659,171.497198 C87.8062432,165.241761 85.2934973,159.985882 81.2901767,155.742684 C77.2846672,151.497298 72.3117067,148.695474 66.3800506,147.345962 C66.3778618,147.343775 66.375673,147.341588 66.3734842,147.337213 C65.4913966,141.32237 63.6571797,136.801395 60.8752111,133.783038 C58.2004938,130.880602 55.3484835,129.647013 52.3169913,130.086643 C50.4565088,130.357858 48.9484235,131.215246 47.7949243,132.656621 C46.6414251,134.100184 46.1992869,135.661856 46.4706985,137.337263 C46.5845163,138.032798 47.0791857,138.907684 47.9590846,139.964109 C48.8740042,141.250192 49.7123158,143.734869 50.4718304,147.413766 C43.7719044,148.747968 37.1551529,151.40106 30.6128208,155.377419 C24.0704886,159.353777 18.4365097,163.979738 13.7086952,169.242179 C8.9786919,174.50462 5.34309012,180.302929 2.80188983,186.62617 C0.260689549,192.951598 -0.553545168,198.942382 0.365752093,204.602896 C1.51706247,211.704785 4.33405193,216.899423 8.81672048,220.199931 C13.299389,223.496065 18.9683888,224.618107 25.8237198,223.576992 C30.6609744,222.842088 35.4566418,220.449274 40.2172883,216.396363 C44.9757461,212.343452 49.143227,207.39597 52.7109759,201.547355 C56.2809136,195.696553 59.3080281,189.266139 61.7901307,182.249551 C64.2722333,175.230776 65.8437939,168.389165 66.5048124,161.720344 C70.1141485,164.170026 72.3905037,168.323548 73.3382554,174.172163 C74.4939433,181.295925 73.3842202,194.272676 70.0134636,213.106791 C68.7855451,219.972461 67.1658309,227.367437 65.1586985,235.293907 C63.1493774,243.220377 61.5296632,249.257092 60.2973671,253.401866 C56.9397433,262.233843 54.5473816,269.300737 53.120282,274.604735 C51.6931825,279.902172 51.198513,283.913526 51.6406512,286.634422 C52.043391,289.123474 53.0349187,291.0351 54.6130457,292.378051 C56.1911726,293.716627 58.0954313,294.228435 60.3301991,293.906914 C62.5102469,293.59633 64.3006878,292.303685 65.7015217,290.031168 C67.1023556,287.758651 68.4265814,283.90259 69.6632551,278.454235 C73.0383893,263.349323 76.7374664,248.557183 80.7582975,234.084377 C82.8048283,226.573478 84.9170232,220.123379 87.0905046,214.734079 C89.2661748,209.342592 92.1488283,203.292754 95.7406541,196.591125 C100.006631,188.673404 104.495866,181.383414 109.208359,174.721154 C113.923041,168.061083 119.047028,162.258399 124.582511,157.317479 C130.115805,152.374371 135.150052,149.627228 139.678686,149.067301 C143.193903,148.629858 146.181619,149.522242 148.633079,151.742266 C151.084538,153.960103 152.691119,157.424652 153.450634,162.129353 C154.626021,169.39091 154.087576,176.978361 151.835297,184.891708 C149.583019,192.802867 146.083123,199.891633 141.335609,206.164568 C133.444975,202.754699 124.707273,201.663278 115.120316,202.912178 C108.62176,203.756443 103.493394,205.917413 99.7286531,209.381962 C95.9661008,212.846512 94.4558267,216.873176 95.1956421,221.451019 C95.9091919,225.856071 98.3124976,229.202511 102.412126,231.501275 C106.509565,233.797852 111.96844,234.499948 118.784372,233.6185 C127.202508,232.533641 135.28138,229.206886 143.023177,223.63386 C145.441804,226.831569 147.046196,230.86917 147.836354,235.746661 C149.237188,244.403661 148.322269,252.537916 145.100351,260.158176 C145.047819,260.164737 144.993099,260.171299 144.940568,260.177861 C136.944871,261.157733 128.59021,260.844961 119.874396,259.243919 C111.160771,257.64069 104.54402,255.320054 100.021953,252.251391 C96.2243795,249.622357 92.485904,248.554996 88.8152814,249.055868 C86.0464456,249.434257 84.0502572,250.700655 82.82015,252.855062 C81.5900427,255.007283 81.3033095,258.113129 81.9621392,262.168227 C83.7613352,273.292406 88.5591914,281.571018 96.3513301,287.03687 C104.145658,292.502722 113.262022,294.556517 123.704801,293.222316 C130.043575,292.410859 136.051839,290.059602 141.725216,286.159796 C147.398594,282.259991 152.146107,277.336568 155.96338,271.367656 C166.644738,269.200125 175.29051,265.729014 181.902884,260.921514 C183.826842,259.521696 185.560374,257.944713 187.210731,256.293365 C191.684645,251.807386 194.27181,246.354657 195.639812,242.638578 C196.552543,240.167024 195.685777,237.402383 193.547316,235.860396" id="Fill-4"></path>
            </g>
        </g>
    </g>
</svg>