<svg width="135" height="14" viewBox="0 0 135 14" fill="none" xmlns="http://www.w3.org/2000/svg">
<path fill-rule="evenodd" clip-rule="evenodd" d="M65.3873 2.13731L64.9342 1.96059C64.9342 1.96059 60.7916 0.414718 58.5657 1.96059C60.4185 -0.0539051 64.3448 0.893236 64.3448 0.893236L64.6373 0.948439C65.085 0.379217 65.6034 0.133145 66.0541 0.0367121C66.6711 -0.0953946 67.1602 0.17151 67.1602 0.17151C65.3798 0.436678 65.3873 2.13731 65.3873 2.13731ZM67.9182 1.70713C67.9806 1.36524 67.6817 0.959541 67.2706 0.954941C66.8596 0.959541 66.5607 1.36524 66.6232 1.70713C66.6653 2.05589 66.9819 2.27861 67.2706 2.26655C67.5594 2.27861 67.8761 2.05589 67.9182 1.70713ZM66.395 2.58284C66.1766 2.34215 66.0707 2.01449 66.0922 1.70713C66.1289 1.07307 66.7058 0.602888 67.2706 0.633267C67.8356 0.602888 68.4125 1.07307 68.4492 1.70713C68.4707 2.01449 68.3646 2.34215 68.1463 2.58284C68.0158 2.7284 67.8431 2.83343 67.6555 2.89922L67.6331 2.90786C67.6058 2.91851 67.5785 2.92912 67.55 2.93663L67.5699 3.6193C67.7223 3.61513 67.8747 3.60862 68.0272 3.59334C68.2795 3.57078 68.5318 3.54396 68.7841 3.48571C69.0156 3.43233 69.2467 3.57685 69.3001 3.80834C69.3534 4.03992 69.2089 4.27098 68.9774 4.32436C68.9122 4.33937 68.8452 4.33816 68.7841 4.32436C68.5318 4.26612 68.2795 4.2393 68.0272 4.21673C67.8802 4.20206 67.7334 4.19538 67.5866 4.19112L67.6804 7.41767C68.1658 7.36012 68.6368 7.19911 69.0483 6.9349C69.4507 6.67025 69.789 6.30119 69.9988 5.83065L69.5942 6.03576C69.5271 6.06978 69.4451 6.04296 69.4111 5.97587C69.382 5.91841 69.3975 5.85001 69.4447 5.81026L70.1863 5.18314C70.2807 5.10337 70.4218 5.11518 70.5016 5.20953C70.5128 5.22281 70.5227 5.238 70.5302 5.25284L70.9694 6.11917C71.0034 6.18626 70.9766 6.2682 70.9095 6.30223C70.8521 6.33131 70.7837 6.31577 70.7439 6.26864L70.4552 5.92743C70.409 6.55733 70.0762 7.1874 69.5868 7.61496C69.0584 8.09947 68.3685 8.36446 67.6637 8.44467C67.6621 8.44972 67.6609 8.4549 67.66 8.46013L67.658 8.47173L67.658 8.47183C67.656 8.48488 67.6539 8.49786 67.6481 8.50959L67.3214 9.15459C67.3071 9.18289 67.2726 9.19417 67.2443 9.17985C67.233 9.17412 67.2244 9.16509 67.2191 9.15459L66.8924 8.50959C66.8858 8.49658 66.8831 8.48297 66.8803 8.46931L66.8783 8.45919C66.8772 8.45418 66.8759 8.44919 66.8744 8.44423C66.171 8.36342 65.4829 8.09852 64.9556 7.61496C64.4678 7.1887 64.1352 6.56132 64.0872 5.93334L63.8038 6.26864C63.7552 6.3261 63.6692 6.3333 63.6118 6.28478C63.5626 6.24321 63.5503 6.17411 63.5782 6.11917L64.0174 5.25284C64.0732 5.1426 64.2078 5.0986 64.318 5.15441C64.3334 5.16231 64.3484 5.17246 64.3612 5.18314L65.1029 5.81026C65.1603 5.85878 65.1676 5.94471 65.119 6.00217C65.0774 6.05138 65.0084 6.06362 64.9534 6.03576L64.5426 5.82753C64.7522 6.29945 65.0908 6.66964 65.494 6.9349C65.905 7.19885 66.3755 7.35986 66.8603 7.41758L66.9541 4.19208C66.5547 4.20527 66.1555 4.23834 65.7562 4.32436C65.5247 4.37418 65.2965 4.22688 65.2466 3.99531C65.1968 3.76373 65.3441 3.53562 65.5757 3.48571C65.6364 3.47261 65.6991 3.47374 65.7562 3.48571C66.1611 3.57295 66.5659 3.60558 66.9707 3.61834L66.9906 2.93637C66.9618 2.92873 66.934 2.91793 66.9063 2.90712L66.8854 2.89905C66.698 2.83325 66.5255 2.72823 66.395 2.58284ZM28.1815 9.83829L27.61 10.0596C20.418 12.8434 15.1711 9.79708 15.1711 9.79708C20.5946 11.0577 25.9594 9.6918 30.3218 7.64327C34.6844 5.59475 40.2258 4.07153 45.0009 7.59093C40.181 5.18807 35.0818 7.16417 28.1815 9.83829ZM8.7305 11.3801C8.7305 11.3801 5.62903 6.31511 3.81269 7.51136C1.99618 8.70752 8.7305 11.3801 8.7305 11.3801ZM8.73049 12.0372C8.73049 12.0372 3.66452 10.3856 3.20475 11.8142C2.74516 13.243 8.73049 12.0372 8.73049 12.0372ZM59.6336 4.43463C56.5324 3.12572 54.4355 4.68574 52.6383 7.46345C52.6383 7.46345 55.5852 3.61604 59.6336 4.43463ZM58.1948 6.82968C62.3605 8.56139 65.1383 11.629 65.1383 11.629C65.1383 11.629 62.6032 6.68846 58.1948 6.82968ZM106.938 10.0596C114.13 12.8434 119.377 9.79708 119.377 9.79708C113.953 11.0577 108.588 9.6918 104.226 7.64327C99.8635 5.59475 94.3214 4.07153 89.5466 7.59093C94.3665 5.18804 99.4659 7.16422 106.366 9.8384L106.938 10.0596ZM130.735 7.51136C128.918 6.31511 125.817 11.3801 125.817 11.3801C125.817 11.3801 132.552 8.70752 130.735 7.51136ZM125.817 12.0372C125.817 12.0372 131.803 13.243 131.343 11.8142C130.883 10.3856 125.817 12.0372 125.817 12.0372ZM74.9141 4.43463C78.9624 3.61604 81.9092 7.46345 81.9092 7.46345C80.112 4.68574 78.0152 3.12572 74.9141 4.43463ZM69.4093 11.629C69.4093 11.629 72.1872 8.56139 76.3528 6.82968C71.9443 6.68846 69.4093 11.629 69.4093 11.629ZM69.1602 2.13731L69.6133 1.96059C69.6133 1.96059 73.756 0.414718 75.9818 1.96059C74.1291 -0.0539051 70.2028 0.893236 70.2028 0.893236L69.9103 0.948439C69.4626 0.379217 68.9441 0.133145 68.4935 0.0367121C67.8765 -0.0953946 67.3875 0.17151 67.3875 0.17151C69.1678 0.436678 69.1602 2.13731 69.1602 2.13731ZM94.6764 13.3095L100.909 13.3309C105.088 13.344 109.266 13.3615 113.446 13.388C113.386 13.3825 113.327 13.3778 113.267 13.3728C113.083 13.3533 112.9 13.3382 112.716 13.3231L112.716 13.3231C112.341 13.2924 111.966 13.2616 111.595 13.1934C109.37 12.9026 107.185 12.3122 105.09 11.5378C103.864 11.0904 102.672 10.5759 101.487 10.0645C100.64 9.6991 99.797 9.33522 98.9478 8.99837C97.9218 8.62036 96.8924 8.24678 95.83 8.01538C95.4802 7.92537 95.1269 7.86149 94.771 7.80715C95.3109 8.14219 95.7718 8.61116 96.0869 9.17492C96.415 9.78815 96.5999 10.5148 96.4679 11.2417C96.3664 11.9708 95.8916 12.6425 95.2857 13.0399C95.0913 13.1642 94.8865 13.2481 94.6764 13.3095ZM67.6138 13.2582L84.0913 13.273L90.9042 13.2965L90.3643 13.2046L89.4251 12.9472C89.2168 12.899 89.0185 12.823 88.8202 12.747C88.7162 12.7071 88.6122 12.6672 88.5068 12.6314L88.0511 12.4631L87.6085 12.2648C86.422 11.7473 85.3008 11.1011 84.212 10.4156C83.1654 9.75646 82.1599 9.03796 81.1604 8.32382L81.0373 8.23585C80.6313 7.94742 80.2245 7.6635 79.8171 7.38557C79.9292 7.72574 79.9992 8.0744 80.0255 8.41439C80.0719 8.98526 80.0174 9.59415 79.7718 10.1557C79.5233 10.716 79.0523 11.18 78.4995 11.4213C77.9415 11.6477 77.3296 11.6965 76.7673 11.5455C76.2123 11.4 75.6737 11.0614 75.4137 10.5359C75.2819 10.2799 75.2234 9.99568 75.2265 9.72053C75.2264 9.44286 75.3142 9.18143 75.4082 8.93553C75.3618 9.1974 75.3373 9.45961 75.3722 9.71263C75.4088 9.96426 75.5001 10.2008 75.643 10.3965C75.9294 10.7907 76.3943 11.0125 76.8644 11.0779C77.3366 11.152 77.8264 11.0621 78.2287 10.8508C78.6312 10.6352 78.9357 10.2878 79.0894 9.868C79.2452 9.4485 79.2797 8.97268 79.2188 8.49494C79.1551 8.00852 79.0302 7.55214 78.7978 7.16363C78.5682 6.77564 78.2355 6.46786 77.8329 6.26805C77.431 6.0652 76.9654 5.97363 76.49 5.95636C75.5333 5.93075 74.5467 6.19331 73.6405 6.6142C72.7235 7.02206 71.8762 7.59788 71.1095 8.26249C69.586 9.60969 68.3928 11.3312 67.6218 13.2385L67.6138 13.2582ZM43.643 13.2965L50.4562 13.273L66.9329 13.2582L66.9141 13.2121C66.1428 11.3155 64.9544 9.60335 63.438 8.26249C62.6714 7.59788 61.8239 7.02206 60.907 6.6142C60.0007 6.19331 59.0141 5.93075 58.0575 5.95636C57.5821 5.97363 57.1165 6.0652 56.7146 6.26805C56.312 6.46786 55.9792 6.77564 55.7496 7.16363C55.5173 7.55214 55.3923 8.00852 55.3286 8.49494C55.2677 8.97268 55.3023 9.4485 55.4581 9.868C55.6119 10.2878 55.9163 10.6352 56.3188 10.8508C56.7211 11.0621 57.2109 11.152 57.6831 11.0779C58.1532 11.0125 58.6181 10.7907 58.9045 10.3965C59.0474 10.2008 59.1387 9.96426 59.1754 9.71263C59.2102 9.45961 59.1857 9.1974 59.1393 8.93553C59.2333 9.18143 59.321 9.44286 59.3209 9.72053C59.3241 9.99568 59.2656 10.2799 59.1337 10.5359C58.8737 11.0614 58.3353 11.4 57.7802 11.5455C57.2179 11.6965 56.6059 11.6477 56.048 11.4213C55.4951 11.18 55.0242 10.716 54.7757 10.1557C54.53 9.59415 54.4756 8.98526 54.522 8.41439C54.5483 8.0744 54.6182 7.72574 54.7305 7.38557C54.3229 7.6635 53.9163 7.94742 53.5102 8.23585L53.3815 8.32779C52.3838 9.04062 51.3803 9.75768 50.3355 10.4156C49.2467 11.1011 48.1256 11.7473 46.9391 12.2648L46.4966 12.4631L46.0408 12.6314C45.9349 12.6673 45.8305 12.7073 45.7261 12.7473L45.726 12.7473L45.726 12.7474C45.528 12.8232 45.33 12.8991 45.1221 12.9472L44.1834 13.2046L43.643 13.2965ZM21.1018 13.388C25.2808 13.3615 29.4599 13.344 33.6389 13.3309L39.8707 13.3095C39.6614 13.2481 39.4562 13.1642 39.2617 13.0399C38.6555 12.6425 38.1807 11.9708 38.0799 11.2417C37.948 10.5148 38.1327 9.78815 38.4606 9.17492C38.7756 8.61116 39.2365 8.14219 39.7764 7.80715C39.421 7.86149 39.0672 7.92537 38.7175 8.01538C37.6554 8.24678 36.6253 8.62036 35.5996 8.99837C34.7504 9.3352 33.9073 9.69905 33.0607 10.0644C31.8755 10.5759 30.6834 11.0903 29.4579 11.5378C27.3627 12.3122 25.1783 12.9026 22.9525 13.1934C22.5818 13.2616 22.2068 13.2924 21.8319 13.3231L21.8319 13.3231C21.6479 13.3382 21.4639 13.3533 21.2805 13.3728L21.2442 13.3758C21.1967 13.3797 21.1492 13.3837 21.1018 13.388ZM117.788 13.4166C123.374 13.4548 128.958 13.5285 134.543 13.6244C134.544 13.6244 134.545 13.6248 134.546 13.6256C134.547 13.6264 134.547 13.6276 134.547 13.629C134.547 13.6314 134.545 13.6334 134.543 13.6334C128.937 13.7296 123.331 13.8036 117.726 13.8418C112.273 13.8912 106.82 13.9083 101.368 13.9254L100.909 13.9269L84.0913 13.9847L67.2742 13.9999H67.2741H67.274H67.2734L50.4562 13.9847L33.6389 13.9269L33.1805 13.9254C27.7276 13.9083 22.2746 13.8912 16.8216 13.8418C11.216 13.8036 5.6102 13.7296 0.0045135 13.6334C0.00199636 13.6334 0 13.6313 0 13.6289C0 13.6264 0.00208315 13.6244 0.0045135 13.6244C5.58936 13.5285 11.1742 13.4548 16.7592 13.4166L16.6396 13.4065C16.5025 13.3951 16.3654 13.3837 16.2286 13.3673C15.1049 13.2224 13.9885 12.9663 12.9235 12.551C11.862 12.1346 10.8424 11.5671 9.98256 10.793C9.54623 10.4145 9.16692 9.97268 8.82103 9.50848C8.49354 9.02996 8.20529 8.52176 8.00053 7.97467C7.6069 6.88779 7.47757 5.64293 7.91816 4.51733C8.13342 3.96078 8.49181 3.45015 8.96399 3.07596C9.43443 2.69847 10.0061 2.46829 10.5838 2.37081C11.1666 2.2736 11.7454 2.28254 12.3146 2.38088C12.8829 2.47688 13.4543 2.67235 13.9301 3.0336C14.4107 3.38288 14.7679 3.90966 14.905 4.48678C15.0471 5.06277 14.9862 5.67799 14.7455 6.21293C14.5061 6.74127 14.057 7.21762 13.4652 7.35832C12.8726 7.50119 12.2777 7.28324 11.8168 6.96478C11.7788 6.93848 11.7692 6.8864 11.7955 6.84838C11.8211 6.81132 11.8719 6.80177 11.9097 6.82555C12.3614 7.11138 12.9071 7.27482 13.4054 7.1316C13.9025 6.99038 14.2792 6.57132 14.478 6.09619C14.6764 5.61645 14.7119 5.06763 14.5723 4.57331C14.4366 4.07691 14.1212 3.64214 13.6976 3.35363C13.2792 3.05487 12.7677 2.8942 12.2457 2.82303C11.722 2.75055 11.1773 2.75498 10.6723 2.85141C10.1641 2.94819 9.68259 3.15668 9.29451 3.48131C8.90496 3.80376 8.61402 4.23584 8.43973 4.71427C8.08142 5.67964 8.21119 6.78181 8.58503 7.74987C8.77919 8.23741 9.05018 8.69171 9.35553 9.12015C9.67999 9.53539 10.0327 9.93145 10.4408 10.2707C12.0498 11.6724 14.1864 12.3601 16.318 12.6135C17.3935 12.7311 18.478 12.7301 19.5743 12.6756L20.3941 12.6463C20.5694 12.6337 20.7444 12.6157 20.9193 12.5976C21.0161 12.5877 21.1129 12.5777 21.2098 12.5686C21.3897 12.5476 21.5702 12.5312 21.7507 12.5147L21.7508 12.5147C22.1143 12.4815 22.4778 12.4484 22.8361 12.3783C24.9978 12.0662 27.1161 11.5102 29.176 10.7612C30.232 10.3835 31.2756 9.96144 32.3245 9.53721L32.3245 9.5372L32.3246 9.53718C33.3259 9.13217 34.3321 8.72519 35.3586 8.35311C37.4547 7.59155 39.7121 7.10183 41.9612 7.21649C41.9926 7.21805 42.0208 7.22864 42.0465 7.24322C43.33 7.29669 44.4876 7.9015 45.4529 8.63399L45.421 8.6806C44.8648 8.36795 44.3017 8.07249 43.7019 7.88518C43.1029 7.70421 42.4837 7.60665 41.877 7.64267C41.2711 7.67991 40.6828 7.86227 40.1844 8.18082C39.6938 8.509 39.2862 8.95401 39.0261 9.47116C38.7803 9.99091 38.6655 10.5774 38.7802 11.1131C38.8711 11.6574 39.2255 12.0997 39.6765 12.4024C40.1354 12.6889 40.6821 12.9832 41.2998 13.0716C41.4094 13.086 41.5198 13.0926 41.6303 13.0991L41.6303 13.0991C41.6623 13.101 41.6943 13.1029 41.7262 13.105C41.7385 13.1058 41.7507 13.1066 41.7629 13.1075L42.232 13.0742L42.7008 13.0414L42.9349 13.0252L43.1664 12.9818L44.0916 12.8093L44.9968 12.5449C45.1962 12.4959 45.3871 12.4189 45.578 12.3421C45.6796 12.3011 45.7812 12.2602 45.884 12.2235L46.3244 12.0531L46.7529 11.8524C47.2946 11.6124 47.8144 11.3253 48.3339 11.0384L48.4352 10.9824L48.5921 10.8857C49.0788 10.5857 49.565 10.286 50.034 9.95662C51.0809 9.2414 52.0939 8.47472 53.0971 7.68399C53.5985 7.28732 54.103 6.89152 54.6233 6.50388C54.7154 6.44048 54.805 6.37544 54.8946 6.31038L54.8947 6.31032C55.0687 6.18397 55.2429 6.05754 55.4365 5.9429C55.4869 5.91241 55.5357 5.88091 55.5845 5.84939C55.6764 5.79 55.7684 5.73058 55.8714 5.67791L56.3588 5.44494L56.3607 5.45067C56.8857 5.18541 57.4589 5.0573 58.0184 5.03447C59.1793 4.9942 60.2929 5.28896 61.3009 5.74865C62.3131 6.21024 63.227 6.84439 64.0497 7.57002C64.9003 8.32508 65.6346 9.20009 66.246 10.1514C66.246 10.1514 66.8505 11.0578 67.2737 12.0578C67.697 11.0578 68.3014 10.1514 68.3014 10.1514C68.9128 9.20009 69.6471 8.32508 70.4979 7.57002C71.3205 6.84439 72.2343 6.21024 73.2466 5.74865C74.2546 5.28896 75.3681 4.9942 76.5292 5.03447C77.0885 5.0573 77.6618 5.18541 78.1868 5.45067L78.1888 5.44494L78.676 5.67791C78.7791 5.73061 78.8712 5.79007 78.9632 5.84949C79.0119 5.88097 79.0606 5.91245 79.111 5.9429C79.3046 6.05756 79.4787 6.18401 79.6528 6.31039C79.7424 6.37545 79.832 6.44048 79.9242 6.50388C80.4445 6.89152 80.949 7.28732 81.4504 7.68399C82.4536 8.47472 83.4665 9.2414 84.5135 9.95662C84.9829 10.2863 85.4696 10.5863 85.9567 10.8865L86.1122 10.9824L86.2111 11.037C86.7315 11.3244 87.2522 11.612 87.7942 11.8524L88.223 12.0531L88.663 12.2235C88.7656 12.2601 88.8669 12.3009 88.9683 12.3417L88.9685 12.3418C89.1598 12.4187 89.3513 12.4958 89.551 12.5449L90.4563 12.8093L91.3807 12.9818L91.6124 13.0252L91.8468 13.0414L92.3155 13.0742L92.7842 13.1075C92.8059 13.106 92.8276 13.1045 92.8493 13.1032C92.8717 13.1018 92.894 13.1005 92.9163 13.0992L92.9164 13.0992C93.0273 13.0926 93.1377 13.0861 93.2477 13.0716C93.8657 12.9832 94.4126 12.6889 94.8709 12.4024C95.3222 12.0997 95.6763 11.6574 95.7675 11.1131C95.882 10.5774 95.7675 9.99091 95.5218 9.47116C95.2614 8.95401 94.8535 8.509 94.3631 8.18082C93.8649 7.86227 93.2764 7.67991 92.6705 7.64267C92.0638 7.60665 91.4441 7.70421 90.8452 7.88518C90.2454 8.07249 89.6829 8.36795 89.1265 8.6806L89.0944 8.63399C90.0605 7.90115 91.2184 7.29626 92.5021 7.24314C92.5282 7.22882 92.5559 7.21814 92.5863 7.21649C94.8353 7.10183 97.0929 7.59155 99.1891 8.35311C100.215 8.72513 101.221 9.13202 102.223 9.53696L102.223 9.53703L102.223 9.53706C103.272 9.96135 104.316 10.3835 105.372 10.7612C107.431 11.5102 109.549 12.0662 111.711 12.3783C112.07 12.4484 112.433 12.4815 112.797 12.5147C112.978 12.5312 113.158 12.5476 113.338 12.5686C113.435 12.5777 113.531 12.5877 113.628 12.5976L113.628 12.5976C113.803 12.6157 113.978 12.6337 114.153 12.6463L114.973 12.6756C116.07 12.7301 117.155 12.7311 118.23 12.6135C120.361 12.3601 122.498 11.6724 124.107 10.2707C124.515 9.93145 124.867 9.53539 125.192 9.12015C125.498 8.69171 125.768 8.23741 125.963 7.74987C126.336 6.78181 126.466 5.67964 126.108 4.71427C125.933 4.23584 125.643 3.80376 125.253 3.48131C124.865 3.15668 124.383 2.94819 123.875 2.85141C123.37 2.75498 122.825 2.75055 122.302 2.82303C121.78 2.8942 121.269 3.05487 120.85 3.35363C120.426 3.64214 120.111 4.07691 119.975 4.57331C119.836 5.06763 119.871 5.61645 120.069 6.09619C120.268 6.57132 120.645 6.99038 121.142 7.1316C121.64 7.27482 122.186 7.11138 122.638 6.82555C122.677 6.80055 122.729 6.81184 122.754 6.85064C122.778 6.88848 122.767 6.93908 122.73 6.96478C122.27 7.28324 121.675 7.50119 121.082 7.35832C120.49 7.21762 120.041 6.74127 119.802 6.21293C119.561 5.67799 119.501 5.06277 119.642 4.48678C119.779 3.90966 120.137 3.38288 120.618 3.0336C121.093 2.67235 121.665 2.47688 122.233 2.38088C122.802 2.28254 123.381 2.2736 123.964 2.37081C124.542 2.46829 125.113 2.69847 125.583 3.07596C126.056 3.45015 126.414 3.96078 126.629 4.51733C127.069 5.64293 126.941 6.88779 126.547 7.97467C126.342 8.52176 126.054 9.02996 125.727 9.50848C125.38 9.97268 125.001 10.4145 124.564 10.793C123.705 11.5671 122.685 12.1346 121.624 12.551C120.559 12.9663 119.443 13.2224 118.318 13.3673C118.182 13.3837 118.045 13.3951 117.907 13.4065L117.788 13.4166ZM64.442 3.06114L63.1697 3.93641C63.1697 3.93641 59.9066 2.48159 56.3306 2.74294C56.3306 2.74294 60.9602 3.17528 63.2132 5.34914L64.442 3.06114ZM71.3344 5.34914L70.1056 3.06114L71.3779 3.93641C71.3779 3.93641 74.6409 2.48159 78.2168 2.74294C78.2168 2.74294 73.5872 3.17528 71.3344 5.34914Z" fill="#E1A75F"/>
</svg>
