<?xml version="1.0" encoding="UTF-8"?>
<svg width="24px" height="24px" viewBox="0 0 24 24" version="1.1" xmlns="http://www.w3.org/2000/svg" xmlns:xlink="http://www.w3.org/1999/xlink">
    <!-- Generator: Sketch 62 (91390) - https://sketch.com -->
    <title>facebook</title>
    <desc>Created with Sketch.</desc>
    <g id="Landing-page" stroke="none" stroke-width="1" fill="none" fill-rule="evenodd">
        <g id="Bondens-Landing" transform="translate(-1253.000000, -10158.000000)" fill="#2E2923" fill-rule="nonzero">
            <g id="Footer" transform="translate(403.000000, 9851.000000)">
                <g id="Group-7" transform="translate(850.000000, 307.000000)">
                    <path d="M24,11.9979503 C23.9989947,5.61477466 19.0009071,0.34960141 12.6264235,0.0165977699 C6.25193988,-0.316405871 0.732448705,4.39932805 0.0663487125,10.7476541 C-0.59975128,17.0959801 3.82070826,22.8546663 10.1254829,23.8520376 L10.1254829,15.4665796 L7.07908897,15.4665796 L7.07908897,11.9979503 L10.1254829,11.9979503 L10.1254829,9.35429239 C10.1254829,6.34689709 11.9171705,4.68570493 14.6575751,4.68570493 C15.5575469,4.69818653 16.4554048,4.77639191 17.3439816,4.91969678 L17.3439816,7.87309396 L15.8305343,7.87309396 C15.3081159,7.80371095 14.782497,7.9756848 14.4021235,8.34044644 C14.0217501,8.70520808 13.8279117,9.22316261 13.8753523,9.74802868 L13.8753523,11.9979503 L17.2037365,11.9979503 L16.671255,15.4665796 L13.8753523,15.4665796 L13.8753523,23.8520376 C19.7069063,22.9295267 24.0009295,17.9020207 24,11.9979503 Z" id="facebook"></path>
                </g>
            </g>
        </g>
    </g>
</svg>