<svg width="24" height="24" viewBox="0 0 24 24" fill="none" xmlns="http://www.w3.org/2000/svg">
<g clip-path="url(#clip0)">
<path d="M24 12.072C24.0005 9.77863 23.3438 7.53314 22.1077 5.60142C20.8716 3.66969 19.1078 2.13264 17.0252 1.17226C14.9426 0.211871 12.6284 -0.131622 10.3566 0.182448C8.08487 0.496519 5.95068 1.455 4.20676 2.9444C2.46285 4.4338 1.18225 6.39173 0.516594 8.58638C-0.14906 10.781 -0.171887 13.1204 0.450816 15.3277C1.07352 17.5349 2.31567 19.5174 4.03019 21.0406C5.74471 22.5637 7.8598 23.5637 10.125 23.922V15.54H7.0785V12.072H10.125V9.4275C10.0594 8.81017 10.1304 8.18597 10.3329 7.59914C10.5355 7.01231 10.8646 6.47721 11.297 6.03177C11.7295 5.58634 12.2546 5.24146 12.8351 5.02159C13.4157 4.80172 14.0375 4.71225 14.6565 4.7595C15.5565 4.77132 16.4545 4.84954 17.343 4.9935V7.95H15.831C15.5734 7.91632 15.3116 7.94099 15.0649 8.02217C14.8181 8.10336 14.5928 8.23899 14.4056 8.41903C14.2183 8.59907 14.0739 8.81891 13.9832 9.06227C13.8924 9.30564 13.8574 9.56631 13.881 9.825V12.075H17.2095L16.677 15.543H13.875V23.9295C16.6984 23.4829 19.2695 22.0431 21.1257 19.8693C22.9819 17.6955 24.0012 14.9305 24 12.072Z" fill="#0F4960"/>
</g>
<defs>
<clipPath id="clip0">
<rect width="24" height="24" fill="white"/>
</clipPath>
</defs>
</svg>
