<?xml version="1.0" encoding="UTF-8"?>
<svg width="56px" height="32px" viewBox="0 0 56 32" version="1.1" xmlns="http://www.w3.org/2000/svg" xmlns:xlink="http://www.w3.org/1999/xlink">
    <!-- Generator: Sketch 62 (91390) - https://sketch.com -->
    <title>badge</title>
    <desc>Created with Sketch.</desc>
    <defs>
        <rect id="path-1" x="0" y="0" width="48" height="24" rx="6"></rect>
        <filter x="-13.5%" y="-22.9%" width="127.1%" height="154.2%" filterUnits="objectBoundingBox" id="filter-2">
            <feOffset dx="0" dy="1" in="SourceAlpha" result="shadowOffsetOuter1"></feOffset>
            <feGaussianBlur stdDeviation="2" in="shadowOffsetOuter1" result="shadowBlurOuter1"></feGaussianBlur>
            <feColorMatrix values="0 0 0 0 0   0 0 0 0 0.0249660326   0 0 0 0 0.0707370924  0 0 0 0.32 0" type="matrix" in="shadowBlurOuter1"></feColorMatrix>
        </filter>
    </defs>
    <g id="Landing-page" stroke="none" stroke-width="1" fill="none" fill-rule="evenodd">
        <g id="Bondens-Landing" transform="translate(-1465.000000, -10294.000000)">
            <g id="Footer" transform="translate(403.000000, 9851.000000)">
                <g id="Group-41" transform="translate(0.000000, 411.000000)">
                    <g id="badge" transform="translate(1066.000000, 35.000000)">
                        <g id="Rectangle">
                            <use fill="black" fill-opacity="1" filter="url(#filter-2)" xlink:href="#path-1"></use>
                            <use fill="#2E2923" fill-rule="evenodd" xlink:href="#path-1"></use>
                        </g>
                        <path d="M12.6621121,9.05632106 C12.3745884,10.1295189 12.1386482,11.0415309 11.9291632,11.8822069 C12.8949838,11.417251 13.8674389,11.7569961 14.6746115,11.2200901 C15.4809548,10.683886 15.3782026,12.8120309 14.5382721,13.1874878 C13.7296896,13.5453959 12.0415354,12.9372417 11.4994949,13.4559847 C10.6268894,16.5138659 10.1600678,17.5332766 9.22924431,17.7114848 C8.31509006,17.8904828 7.55253464,15.9057117 8.30712863,15.8517491 C9.06321539,15.816125 9.90629732,12.00733 10.5209858,9.11019593 C10.744818,8.05516111 12.9221024,8.05516111 12.6621121,9.05632106 Z M23.6534292,11.2896888 C24.4686557,11.8283501 24.1593886,12.674629 23.393377,14.2530341 C22.7256278,15.6380688 22.8867481,16.0811779 23.2195346,16.1774854 C23.4331339,16.273793 23.8666938,16.1774854 24.2953155,15.8502286 C25.1036787,15.2340492 24.1123499,17.6783724 22.1856031,17.6783724 C21.0428631,17.6783724 20.8959717,16.4656527 21.3995038,15.2920226 C21.9052957,14.156821 22.4263209,13.1945009 21.9976992,13.1561667 C21.6035615,13.1178326 19.8499875,15.4649985 19.3108834,16.6394784 C19.2332946,16.9087618 19.1896876,17.1780453 19.1580494,17.3894498 C19.0844781,17.8897769 17.5731286,17.7745855 17.6407572,17.3894498 C17.7059798,16.9434185 17.8216567,16.4334964 17.9634848,15.9062357 C17.7174209,16.426923 16.9159048,17.3373494 15.9270081,17.3373494 C14.6882146,17.3373494 14.8347819,15.9089157 15.1925924,14.6948959 C15.4352654,13.8199781 15.9352209,12.427207 16.2105083,12.1053669 C16.5126454,11.7305148 17.8427275,11.7486528 17.63717,12.1235049 C17.1742512,13.0163855 16.8340509,14.0343045 16.6228077,14.8909967 C16.3904007,15.8733406 16.8773262,16.2837678 17.7668378,15.6414896 C17.9450768,15.5164211 18.0319781,15.5272197 18.0426366,15.6204281 L18.0719799,15.5166102 C18.548652,13.8580634 19.220967,12.1419566 19.3564993,11.7712265 C19.5286678,11.2513546 20.9944015,11.3281174 20.8642498,11.7516817 L20.0909564,14.0220849 C21.6552036,11.5011877 22.9852616,10.8665021 23.6534292,11.2896888 Z M32.28541,8.82566957 C32.0223875,10.2260969 30.4330861,14.2636254 30.2076382,15.1183564 C29.8716671,16.3548517 30.5379039,16.53681 31.4805302,15.8819744 L31.5307343,15.8500601 C31.5613515,15.4930647 31.6445352,15.1097641 31.7476709,14.7460851 C31.97571,13.888116 32.4520828,12.5223254 32.7212617,12.2067199 C33.0163989,11.8391294 34.3415271,11.856916 34.1425926,12.2245066 C33.6954032,13.1000905 33.3724199,14.0983764 33.1752947,14.938387 C32.9620581,15.8883218 33.4369385,16.2928895 34.2902241,15.6999885 C34.1662699,15.1386073 34.1966902,14.4910186 34.4038467,13.7949535 C35.2724963,10.912964 38.5598939,10.4801019 39.3318004,12.1183982 C39.9720547,13.4937798 38.4794586,15.6785138 36.0229138,15.6401624 C36.4822525,16.6578136 38.2363692,16.7328528 39.6449627,15.6026428 C40.7364867,14.7367336 39.2009976,18.0700679 36.5457853,17.6930231 C35.5012555,17.5545444 34.7585077,16.9745952 34.420911,16.1280355 C34.1027069,16.6418291 33.3897095,17.3373494 32.5202821,17.3373494 C31.9084099,17.3373494 31.6303607,16.9929768 31.5466774,16.5006119 C31.1997766,17.0424546 30.480378,17.6861769 29.5373262,17.6098196 C28.9175483,17.5550268 28.5739971,17.2820448 28.4293225,16.8453984 C27.3676962,17.8280981 26.1085789,18.0279042 25.4145483,17.2279659 C24.6255624,16.300059 24.896165,14.3547384 26.0408467,12.8991614 C27.1653963,11.4444767 28.7405155,11.0263921 29.5299906,11.9535851 L29.6446706,12.0993124 C30.1626465,10.7352053 30.6937449,9.35333967 30.8191024,8.82566957 C30.9283215,8.29844566 32.3720518,8.40722798 32.28541,8.82566957 Z M27.1546374,13.9359399 C26.635928,14.6994686 26.534778,15.50021 26.8203779,15.8635019 C27.1186929,16.1912767 27.927485,15.9907567 28.4311156,15.0820361 C28.8435401,14.2636254 29.1306887,13.517766 28.8466374,13.1722327 C28.5796211,12.8266993 27.7732741,13.0264162 27.1546374,13.9359399 Z M35.9771328,14.4539501 C37.4369432,14.397301 38.5356869,13.1359569 38.0876447,12.6838729 C37.6643193,12.2876987 36.332169,13.1543471 35.9771328,14.4539501 Z M17.7843691,8.85542169 C18.9179752,8.85542169 18.3821676,11.1768237 17.1985738,11.1768237 C16.1425156,11.1768237 16.6510788,8.85542169 17.7843691,8.85542169 Z M34.3219145,8.47081465 L34.3454477,8.48483782 C34.467979,8.59054959 34.5570825,8.73773724 34.5924205,8.96044674 C34.6171965,9.10584745 34.5915216,9.33147248 34.5628692,9.51599783 C34.514778,9.82297578 34.4648329,10.1312704 34.3353912,10.3984654 C34.2275232,10.6211749 34.0912837,10.7619672 33.9162228,10.7811533 C33.8282992,10.7908404 33.8168382,10.7685506 33.844985,10.6334954 C33.915661,10.2936941 33.9877978,9.95426904 34.0594289,9.61493802 L34.0594289,9.61493802 L34.1485885,9.15343655 C34.1901627,8.95179417 34.2307256,8.74986964 34.2717379,8.54785107 C34.2842101,8.48737716 34.3010083,8.44637153 34.3454477,8.48483782 Z M33.7456098,8.47008373 L33.7894497,8.48003059 C33.8484791,8.50206334 33.8319158,8.57198931 33.8183452,8.63939458 L33.8183452,8.63939458 L33.6224748,9.63945733 C33.6015771,9.74289922 33.5808343,9.84662119 33.5595238,9.94987636 C33.5100918,10.1898093 33.4607114,10.4296488 33.4104539,10.6691149 C33.3928069,10.7531381 33.3636534,10.8130747 33.3089067,10.7673287 C33.1970397,10.6741563 33.1164935,10.5333708 33.0779489,10.32518 C33.0377015,10.1082134 33.0736662,9.89199372 33.1103532,9.67465372 C33.1584952,9.39093539 33.2074112,9.10721707 33.2555016,8.82340538 C33.276812,8.69783738 33.329082,8.7272455 33.376192,8.7359279 C33.4273784,8.74535717 33.4285652,8.79717147 33.4137562,8.87409938 C33.3614863,9.14866851 33.3121059,9.42426459 33.2627255,9.69995403 C33.2494129,9.77426788 33.2375967,9.84951532 33.2292892,9.92504284 C33.2189694,10.0191488 33.2601971,10.0469698 33.3006509,10.0668553 C33.3458517,10.0890748 33.3595255,10.0262441 33.3729413,9.97116224 C33.3818163,9.93503227 33.3888338,9.89759526 33.3958513,9.86062506 C33.4765524,9.43350714 33.5569439,9.00657595 33.6382125,8.57992483 C33.656427,8.48423175 33.7116897,8.4509959 33.7894497,8.48003059 Z M16.9963626,7.57212995 C16.2183819,8.01918604 11.1763108,7.26835995 10.6985422,7.91187503 C10.3532153,8.35893112 9.43499744,6.69609306 10.4241218,6.15953801 C11.4269299,5.60517092 16.1631495,5.67677009 16.978947,5.12240299 C17.8121601,4.5857602 18.2178611,6.87474001 16.9963626,7.57212995 Z" id="Combined-Shape" fill="#FFFFFF"></path>
                    </g>
                </g>
            </g>
        </g>
    </g>
</svg>