<svg width="64" height="64" viewBox="0 0 64 64" fill="none" xmlns="http://www.w3.org/2000/svg">
<rect width="64" height="64" rx="32" fill="#E1A75F"/>
<g clip-path="url(#clip0)">
<path d="M32.2373 20C34.9496 20.012 37.5419 21.0922 39.4382 22.9884C40.3808 23.9278 41.1281 25.0446 41.6369 26.2744C42.1457 27.5041 42.4059 28.8224 42.4025 30.1533V30.2133C42.3305 33.8497 40.2903 37.1982 37.746 39.8145C36.31 41.2916 34.707 42.5965 32.9694 43.703C32.5013 44.099 31.8172 44.099 31.3492 43.703C28.7688 42.0228 26.4886 39.9105 24.6403 37.4502C23.02 35.3211 22.0978 32.743 22 30.0693C22.024 24.4886 26.6086 19.988 32.2373 20ZM32.2373 27.1169C30.449 27.1169 29.0089 28.5451 29.0089 30.3213C29.0089 32.0747 30.425 33.4897 32.2013 33.5137H32.2373C33.0894 33.5137 33.9055 33.1897 34.5056 32.6016C35.1296 31.9895 35.4777 31.1746 35.4777 30.3213C35.4777 28.5451 34.0255 27.1169 32.2373 27.1169Z" fill="#44321D"/>
</g>
<defs>
<clipPath id="clip0">
<rect width="24" height="24" fill="white" transform="translate(20 20)"/>
</clipPath>
</defs>
</svg>
