<?xml version="1.0" encoding="UTF-8"?>
<svg width="14px" height="14px" viewBox="0 0 14 14" version="1.1" xmlns="http://www.w3.org/2000/svg" xmlns:xlink="http://www.w3.org/1999/xlink">
    <!-- Generator: Sketch 62 (91390) - https://sketch.com -->
    <title>arrowhead-right-outline</title>
    <desc>Created with Sketch.</desc>
    <g id="Landing-page" stroke="none" stroke-width="1" fill="none" fill-rule="evenodd">
        <g id="Bondens-Landing" transform="translate(-434.000000, -2269.000000)" fill="#EFBA8D" fill-rule="nonzero">
            <g id="Group-11" transform="translate(0.000000, 2078.000000)">
                <g id="Group-15" transform="translate(289.000000, 120.000000)">
                    <g id="Group-13" transform="translate(0.000000, 68.000000)">
                        <g id="Group-12">
                            <g id="arrowhead-right-outline" transform="translate(145.000000, 2.000000)">
                                <path d="M13.78,7.37 L9,1.37 C8.83332681,1.16252029 8.5908241,1.0300378 8.32618251,1.00188444 C8.06154091,0.973731075 7.79659343,1.0522295 7.59,1.22 C7.38252029,1.38667319 7.2500378,1.6291759 7.22188444,1.89381749 C7.19373108,2.15845909 7.2722295,2.42340657 7.44,2.63 L11.71,8 L7.23,13.37 C7.0599411,13.5740826 6.978074,13.8374438 7.00246308,14.1019715 C7.02685216,14.3664992 7.15549287,14.6104518 7.36,14.78 C7.54128128,14.9254859 7.76758159,15.0032766 8,15.0000994 C8.29743224,15.000483 8.57964351,14.8685401 8.77,14.64 L13.77,8.64 C14.0762348,8.27339092 14.0804238,7.74138592 13.78,7.37 L13.78,7.37 Z" id="Path"></path>
                                <path d="M2,1.37 C1.6520606,0.92541079 1.00958923,0.84706063 0.565000013,1.19500002 C0.120410796,1.5429394 0.0420606222,2.18541078 0.39,2.63 L4.71,8 L0.23,13.36 C0.0599410971,13.5640826 -0.0219260015,13.8274438 0.00246307995,14.0919715 C0.0268521614,14.3564992 0.155492869,14.6004518 0.36,14.77 C0.539912059,14.9190812 0.766347842,15.0004565 1,15.0000019 C1.29743224,15.000483 1.57964351,14.8685401 1.77,14.64 L6.77,8.64 C7.07331715,8.27099814 7.07331715,7.73900186 6.77,7.37 L2,1.37 Z" id="Path"></path>
                            </g>
                        </g>
                    </g>
                </g>
            </g>
        </g>
    </g>
</svg>