<svg width="24" height="24" viewBox="0 0 24 24" fill="none" xmlns="http://www.w3.org/2000/svg">
<path d="M9.607 6.81395V11.8339C10.853 11.8339 12.496 11.9449 13.484 11.2089C13.744 10.9692 13.953 10.6795 14.0987 10.3573C14.2444 10.035 14.3237 9.68669 14.3319 9.33312C14.3401 8.97955 14.2771 8.62794 14.1465 8.29926C14.016 7.97057 13.8206 7.67152 13.572 7.41995C12.625 6.65795 10.98 6.81395 9.607 6.81395Z" fill="#0F4960"/>
<path d="M23 0H1C0.734784 0 0.48043 0.105357 0.292893 0.292893C0.105357 0.48043 0 0.734784 0 1L0 23C0 23.2652 0.105357 23.5196 0.292893 23.7071C0.48043 23.8946 0.734784 24 1 24H23C23.2652 24 23.5196 23.8946 23.7071 23.7071C23.8946 23.5196 24 23.2652 24 23V1C24 0.734784 23.8946 0.48043 23.7071 0.292893C23.5196 0.105357 23.2652 0 23 0V0ZM15.262 12.605C14.0509 13.4709 12.5777 13.8917 11.092 13.796H9.607V19.138H7.273V4.861H11.384C12.8063 4.75512 14.2217 5.14136 15.393 5.955C15.8484 6.35324 16.2057 6.85132 16.4369 7.41039C16.6682 7.96946 16.7671 8.5744 16.726 9.178C16.7651 9.8237 16.6531 10.4696 16.399 11.0645C16.1449 11.6594 15.7556 12.1868 15.262 12.605Z" fill="#0F4960"/>
</svg>
