<?xml version="1.0" encoding="UTF-8"?>
<svg width="20px" height="27px" viewBox="0 0 20 27" version="1.1" xmlns="http://www.w3.org/2000/svg" xmlns:xlink="http://www.w3.org/1999/xlink">
    <!-- Generator: Sketch 62 (91390) - https://sketch.com -->
    <title>keypad</title>
    <desc>Created with Sketch.</desc>
    <g id="Landing-page" stroke="none" stroke-width="1" fill="none" fill-rule="evenodd">
        <g id="Bondens-Landing" transform="translate(-1253.000000, -10032.000000)" fill="#3B3028" fill-rule="nonzero">
            <g id="Footer" transform="translate(403.000000, 9851.000000)">
                <g id="Group-37" transform="translate(850.000000, 0.000000)">
                    <g id="Group-27" transform="translate(0.000000, 137.000000)">
                        <g id="Group-39" transform="translate(0.000000, 41.000000)">
                            <g id="keypad" transform="translate(0.000000, 3.000000)">
                                <path d="M10,21 C11.6568542,21 13,22.3431458 13,24 C13,25.6568542 11.6568542,27 10,27 C8.34314575,27 7,25.6568542 7,24 C7,22.3431458 8.34314575,21 10,21 Z M3,14 C4.65685425,14 6,15.3431458 6,17 C6,18.6568542 4.65685425,20 3,20 C1.34314575,20 -4.4408921e-16,18.6568542 -4.4408921e-16,17 C-4.4408921e-16,15.3431458 1.34314575,14 3,14 Z M10,14 C11.6568542,14 13,15.3431458 13,17 C13,18.6568542 11.6568542,20 10,20 C8.34314575,20 7,18.6568542 7,17 C7,15.3431458 8.34314575,14 10,14 Z M17,14 C18.6568542,14 20,15.3431458 20,17 C20,18.6568542 18.6568542,20 17,20 C15.3431458,20 14,18.6568542 14,17 C14,15.3431458 15.3431458,14 17,14 Z M3,7 C4.65685425,7 6,8.34314575 6,10 C6,11.6568542 4.65685425,13 3,13 C1.34314575,13 -4.4408921e-16,11.6568542 -4.4408921e-16,10 C-4.4408921e-16,8.34314575 1.34314575,7 3,7 Z M10,7 C11.6568542,7 13,8.34314575 13,10 C13,11.6568542 11.6568542,13 10,13 C8.34314575,13 7,11.6568542 7,10 C7,8.34314575 8.34314575,7 10,7 Z M17,7 C18.6568542,7 20,8.34314575 20,10 C20,11.6568542 18.6568542,13 17,13 C15.3431458,13 14,11.6568542 14,10 C14,8.34314575 15.3431458,7 17,7 Z M3,-4.4408921e-16 C4.65685425,-4.4408921e-16 6,1.34314575 6,3 C6,4.65685425 4.65685425,6 3,6 C1.34314575,6 -4.4408921e-16,4.65685425 -4.4408921e-16,3 C-4.4408921e-16,1.34314575 1.34314575,-4.4408921e-16 3,-4.4408921e-16 Z M10,-4.4408921e-16 C11.6568542,-4.4408921e-16 13,1.34314575 13,3 C13,4.65685425 11.6568542,6 10,6 C8.34314575,6 7,4.65685425 7,3 C7,1.34314575 8.34314575,-4.4408921e-16 10,-4.4408921e-16 Z M17,-4.4408921e-16 C18.6568542,-4.4408921e-16 20,1.34314575 20,3 C20,4.65685425 18.6568542,6 17,6 C15.3431458,6 14,4.65685425 14,3 C14,1.34314575 15.3431458,-4.4408921e-16 17,-4.4408921e-16 Z" id="Combined-Shape"></path>
                            </g>
                        </g>
                    </g>
                </g>
            </g>
        </g>
    </g>
</svg>