<svg width="32" height="32" viewBox="0 0 32 32" fill="none" xmlns="http://www.w3.org/2000/svg">
<circle cx="16" cy="16" r="16" fill="#DFE5E7"/>
<path fill-rule="evenodd" clip-rule="evenodd" d="M18.0673 8.4922C18.6578 8.1681 19.3206 7.99878 19.9941 8.00001C20.5937 7.99881 21.186 8.13259 21.727 8.39145C22.2679 8.6503 22.7438 9.0276 23.1193 9.4954C23.4947 9.9632 23.7602 10.5095 23.8961 11.0939C24.0319 11.6783 24.0346 12.2857 23.904 12.8713C23.7734 13.4569 23.5128 14.0055 23.1415 14.4767C22.7702 14.9478 22.2977 15.3293 21.7591 15.593C21.2204 15.8567 20.6294 15.9957 20.0298 15.9999C19.4301 16.0041 18.8372 15.8732 18.295 15.617L15.9962 16L16.379 13.7C16.091 13.0908 15.9619 12.4187 16.0035 11.7462C16.0452 11.0736 16.2562 10.4225 16.6171 9.85358C16.9779 9.28463 17.4768 8.8163 18.0673 8.4922ZM18.4449 17.8141L21.1605 19.0211C21.4643 19.1539 21.7109 19.3908 21.8558 19.6892C22.0007 19.9876 22.0345 20.328 21.9511 20.6491L21.3514 22.9491C21.2655 23.2825 21.0599 23.5726 20.7737 23.764C20.4876 23.9553 20.141 24.0343 19.8002 23.9861C16.8267 23.5591 14.0715 22.1801 11.9468 20.0555C9.82222 17.9308 8.44253 15.1748 8.0143 12.2001C7.96518 11.8589 8.04356 11.5116 8.23444 11.2247C8.42531 10.9378 8.71526 10.7314 9.04877 10.6451L11.3476 10.0451C11.6686 9.96155 12.0088 9.99482 12.3076 10.139C12.6063 10.2831 12.8442 10.5288 12.9787 10.8321L14.1761 13.5561C14.302 13.8383 14.3311 14.1542 14.2588 14.4547C14.1865 14.7551 14.0168 15.0232 13.7763 15.2171L12.7978 16.0001C13.6259 17.2807 14.7181 18.3693 16.0012 19.1931L16.7838 18.2141C16.9776 17.9732 17.2457 17.8033 17.5462 17.731C17.8467 17.6586 18.1627 17.6878 18.4449 17.8141Z" fill="#0F4960"/>
</svg>
